<?xml version="1.0" encoding="UTF-8" standalone="no"?>
<!-- Created with Inkscape (http://www.inkscape.org/) -->

<svg
   width="512"
   height="512"
   viewBox="0 0 512 512"
   version="1.1"
   id="svg1"
   inkscape:version="1.3.2 (091e20e, 2023-11-25)"
   sodipodi:docname="instant-functions.svg"
   xmlns:inkscape="http://www.inkscape.org/namespaces/inkscape"
   xmlns:sodipodi="http://sodipodi.sourceforge.net/DTD/sodipodi-0.dtd"
   xmlns="http://www.w3.org/2000/svg"
   xmlns:svg="http://www.w3.org/2000/svg">
  <sodipodi:namedview
     id="namedview1"
     pagecolor="#505050"
     bordercolor="#eeeeee"
     borderopacity="1"
     inkscape:showpageshadow="0"
     inkscape:pageopacity="0"
     inkscape:pagecheckerboard="0"
     inkscape:deskcolor="#505050"
     inkscape:document-units="px"
     showguides="false"
     showgrid="true"
     inkscape:zoom="0.73512863"
     inkscape:cx="197.24439"
     inkscape:cy="199.28485"
     inkscape:window-width="1472"
     inkscape:window-height="814"
     inkscape:window-x="0"
     inkscape:window-y="37"
     inkscape:window-maximized="0"
     inkscape:current-layer="layer1">
    <inkscape:grid
       id="grid2"
       units="px"
       originx="0"
       originy="0"
       spacingx="1"
       spacingy="1"
       empcolor="#0099e5"
       empopacity="0.30196078"
       color="#0099e5"
       opacity="0.14901961"
       empspacing="5"
       dotted="false"
       gridanglex="30"
       gridanglez="30"
       visible="true" />
  </sodipodi:namedview>
  <defs
     id="defs1" />
  <g
     inkscape:groupmode="layer"
     id="layer2"
     inkscape:label="Layer 2"
     style="display:inline" />
  <g
     inkscape:label="Layer 1"
     inkscape:groupmode="layer"
     id="layer1">
    <g
       id="g8"
       transform="matrix(0.51773935,0,0,0.51773935,49.420482,121.38474)">
      <path
         id="rect1"
         style="fill:#ffffff;fill-opacity:1"
         d="m 544,-120 c -121.50337,2.4e-4 -220.00238,98.49663 -220.00586,220 H 325 v 94 h -91 v 150 h 91 v 76 h -0.14844 A 70,69.921257 0 0 1 255,487.8418 70,69.921257 0 0 1 185.14844,420 H 185 V 100 H 35 v 320 h -0.0059 a 220.0063,220.0063 0 0 0 0,0.006 A 220.0063,220.0063 0 0 0 255,640.01172 220.0063,220.0063 0 0 0 475.00586,420.00586 a 220.0063,220.0063 0 0 0 0,-0.006 H 475 v -76 h 79 V 194 h -79 v -94 h -0.69727 C 475.42696,62.255519 506.35064,32.221577 544.1543,32.158203 581.95795,32.221573 612.88163,62.255519 614.00586,100 h 150 C 764.00286,-21.50337 665.50337,-119.99976 544,-120 Z" />
      <circle
         style="fill:#ffffff;fill-opacity:1;stroke-width:1.18585"
         id="path3"
         cx="109"
         cy="-19"
         r="75" />
    </g>
  </g>
</svg>
